<svg width="96" height="97" viewBox="0 0 96 97" fill="none" xmlns="http://www.w3.org/2000/svg">
<path d="M48 0.5C60.2678 0.499999 72.07 5.19717 80.9828 13.6269C89.8956 22.0566 95.2426 33.5789 95.9256 45.8277C96.6085 58.0764 92.5757 70.1218 84.6553 79.4901C76.7349 88.8585 65.5281 94.8386 53.3363 96.2024L51.4686 79.5066C59.3932 78.6201 66.6777 74.733 71.826 68.6436C76.9742 62.5542 79.5956 54.7247 79.1516 46.763C78.7077 38.8013 75.2322 31.3118 69.4388 25.8325C63.6455 20.3532 55.9741 17.3 48 17.3L48 0.5Z" fill="#1DD75B"/>
<path d="M53.3363 96.2024C46.8483 96.9282 40.2804 96.3229 34.0344 94.4234C27.7883 92.5239 21.9954 89.3703 17.0099 85.1553C12.0244 80.9403 7.95109 75.7526 5.03918 69.9095C2.12726 64.0664 0.437908 57.6907 0.0744459 51.1723C-0.289016 44.6539 0.681049 38.1299 2.92531 31.9993C5.16958 25.8687 8.64086 20.2603 13.1269 15.5172C17.6129 10.7741 23.0193 6.99596 29.0155 4.41387C35.0116 1.83177 41.4715 0.5 48 0.5V17.3C43.7565 17.3 39.5576 18.1657 35.66 19.844C31.7625 21.5224 28.2484 23.9782 25.3325 27.0612C22.4166 30.1442 20.1602 33.7896 18.7015 37.7746C17.2427 41.7595 16.6121 46.0001 16.8484 50.237C17.0846 54.4739 18.1827 58.6182 20.0755 62.4162C21.9682 66.2142 24.6158 69.5862 27.8564 72.326C31.097 75.0657 34.8624 77.1156 38.9223 78.3502C42.9823 79.5849 47.2514 79.9784 51.4686 79.5066L53.3363 96.2024Z" fill="#B8F5CD"/>
</svg>
